# 3ds Max Wavefront OBJ Exporter v0.97b - (c)2007 guruware
# File Created: 18.05.2011 20:58:57

#
# object Box001
#

v  25.000000000000 0.000000000000 -25.000000000000
v  25.000000000000 0.000000000000 25.000000000000
v  -25.000000000000 0.000000000000 25.000000000000
v  -25.000000000000 0.000000000000 -25.000000000000
v  25.000000000000 50.000000000000 -25.000000000000
v  -25.000000000000 50.000000000000 -25.000000000000
v  -25.000000000000 50.000000000000 25.000000000000
v  25.000000000000 50.000000000000 25.000000000000
# 8 vertices

vn 0.000000000000 -1.000000000000 -0.000000000000
vn 0.000000000000 1.000000000000 -0.000000000000
vn 0.000000000000 0.000000000000 1.000000000000
vn 1.000000000000 0.000000000000 -0.000000000000
vn 0.000000000000 0.000000000000 -1.000000000000
vn -1.000000000000 0.000000000000 -0.000000000000
# 6 vertex normals

vt 0.000499546528 0.999500215054 0.000499576330
vt 0.000499784946 0.000499546528 0.000499576330
vt 0.999500453472 0.000499784946 0.000499576330
vt 0.999500215054 0.999500453472 0.000499576330
vt 0.999500453472 0.999500215054 0.999500393867
vt 0.000499784946 0.999500453472 0.999500393867
vt 0.000499546528 0.000499784946 0.999500393867
vt 0.999500215054 0.000499546528 0.999500393867
vt 0.999500215054 0.999500393867 0.000499546528
vt 0.000499546528 0.999500393867 0.000499784946
vt 0.000499546528 0.000499576330 0.000499784946
vt 0.999500215054 0.000499576330 0.000499546528
vt 0.999500215054 0.999500393867 0.999500453472
vt 0.000499546528 0.999500393867 0.999500215054
vt 0.000499546528 0.000499576330 0.999500215054
vt 0.999500215054 0.000499576330 0.999500453472
# 16 texture coords

g Box001
f 1/1/1 2/2/1 3/3/1 
f 3/3/1 4/4/1 1/1/1 
f 5/5/2 6/6/2 7/7/2 
f 7/7/2 8/8/2 5/5/2 
f 8/9/3 7/10/3 3/11/3 
f 3/11/3 2/12/3 8/9/3 
f 5/13/4 8/14/4 2/15/4 
f 2/15/4 1/16/4 5/13/4 
f 6/13/5 5/14/5 1/15/5 
f 1/15/5 4/16/5 6/13/5 
f 7/9/6 6/10/6 4/11/6 
f 4/11/6 3/12/6 7/9/6 
# 12 faces

