# 3ds Max Wavefront OBJ Exporter v0.97b - (c)2007 guruware
# File Created: 31.03.2011 18:27:42

#
# object Box001
#

v  -25.000000 -25.000000 25.000000
v  -25.000000 -25.000000 -25.000000
v  25.000000 -25.000000 -25.000000
v  25.000000 -25.000000 25.000000
v  -25.000000 25.000000 25.000000
v  25.000000 25.000000 25.000000
v  25.000000 25.000000 -25.000000
v  -25.000000 25.000000 -25.000000
# 8 vertices

vn 0.000000 -1.000000 -0.000000
vn 0.000000 1.000000 -0.000000
vn 0.000000 0.000000 1.000000
vn 1.000000 0.000000 -0.000000
vn 0.000000 0.000000 -1.000000
vn -1.000000 0.000000 -0.000000
# 6 vertex normals

vt 1.000000 0.000000 0.000000
vt 1.000000 1.000000 0.000000
vt 0.000000 1.000000 0.000000
vt 0.000000 0.000000 0.000000
# 4 texture coords

g Box001
f 1/1/1 2/2/1 3/3/1 
f 3/3/1 4/4/1 1/1/1 
f 5/4/2 6/1/2 7/2/2 
f 7/2/2 8/3/2 5/4/2 
f 1/4/3 4/1/3 6/2/3 
f 6/2/3 5/3/3 1/4/3 
f 4/4/4 3/1/4 7/2/4 
f 7/2/4 6/3/4 4/4/4 
f 3/4/5 2/1/5 8/2/5 
f 8/2/5 7/3/5 3/4/5 
f 2/4/6 1/1/6 5/2/6 
f 5/2/6 8/3/6 2/4/6 
# 12 faces

#
# object PhysX_Box002
#

v  -25.000000 -25.000000 25.000000
v  -25.000000 -25.000000 -25.000000
v  25.000000 -25.000000 -25.000000
v  25.000000 -25.000000 25.000000
v  -25.000000 25.000000 25.000000
v  25.000000 25.000000 25.000000
v  25.000000 25.000000 -25.000000
v  -25.000000 25.000000 -25.000000
# 8 vertices

vn 0.000000 -1.000000 -0.000000
vn 0.000000 1.000000 -0.000000
vn 0.000000 0.000000 1.000000
vn 1.000000 0.000000 -0.000000
vn 0.000000 0.000000 -1.000000
vn -1.000000 0.000000 -0.000000
# 6 vertex normals

vt 1.000000 0.000000 0.000000
vt 1.000000 1.000000 0.000000
vt 0.000000 1.000000 0.000000
vt 0.000000 0.000000 0.000000
# 4 texture coords

g PhysX_Box002
f 9/5/7 10/6/7 11/7/7 
f 11/7/7 12/8/7 9/5/7 
f 13/8/8 14/5/8 15/6/8 
f 15/6/8 16/7/8 13/8/8 
f 9/8/9 12/5/9 14/6/9 
f 14/6/9 13/7/9 9/8/9 
f 12/8/10 11/5/10 15/6/10 
f 15/6/10 14/7/10 12/8/10 
f 11/8/11 10/5/11 16/6/11 
f 16/6/11 15/7/11 11/8/11 
f 10/8/12 9/5/12 13/6/12 
f 13/6/12 16/7/12 10/8/12 
# 12 faces

